<?xml version="1.0" encoding="UTF-8"?>
<svg version="1.1" xmlns="http://www.w3.org/2000/svg" width="600" height="75">
<path d="M0 0 C198 0 396 0 600 0 C600 24.75 600 49.5 600 75 C402 75 204 75 0 75 C0 50.25 0 25.5 0 0 Z " fill="#FAFAFA" transform="translate(0,0)"/>
<path d="M0 0 C7.65699105 4.89980989 12.89291582 13.14418714 14.98828125 21.90234375 C16.27559067 34.19746225 14.15931891 42.55333382 6.546875 52.12109375 C0.7020231 58.80092449 -7.66785204 63.49530276 -16.6015625 64.17578125 C-27.79902343 64.54635216 -36.96003111 63.20237458 -46.01171875 55.96484375 C-53.74149422 48.6103001 -56.89091172 39.53692887 -57.26171875 29.08984375 C-57.19159987 23.88546439 -56.07590451 19.65749232 -54.01171875 14.90234375 C-53.51865234 13.75572266 -53.51865234 13.75572266 -53.015625 12.5859375 C-48.9210144 4.21252967 -41.72760906 -1.29510842 -33.0078125 -4.4375 C-21.50880358 -6.97117993 -10.3301294 -5.63643954 0 0 Z " fill="#030303" transform="translate(124.01171875,8.09765625)"/>
<path d="M0 0 C1.07520905 -0.01231155 2.15041809 -0.02462311 3.25820923 -0.03730774 C3.95015066 -0.0452621 4.64209209 -0.05321646 5.35500145 -0.06141186 C6.86635239 -0.07865375 8.37770627 -0.09564024 9.88906288 -0.11237812 C12.99867347 -0.14706936 16.108069 -0.18315824 19.21746826 -0.23373413 C32.2266597 -0.44395637 42.48456259 0.56168603 53 9 C55.25 11.25 55.25 11.25 57 14 C57.4434375 14.62777344 57.886875 15.25554688 58.34375 15.90234375 C63.60368555 24.44973902 63.5505534 35.27789498 61.3359375 44.87890625 C57.6193051 54.17048725 49.99421354 60.94808744 41 65 C33.74064462 67.54336085 26.37652964 67.27098805 18.77954102 67.20581055 C16.54366873 67.18734447 14.30820686 67.1853027 12.07226562 67.18554688 C1.14774737 67.14774737 1.14774737 67.14774737 0 66 C-0.09413687 63.94443339 -0.11742998 61.88559819 -0.11352539 59.82788086 C-0.11367142 59.18399918 -0.11381744 58.54011749 -0.1139679 57.87672424 C-0.11326885 55.73939697 -0.10547691 53.60215587 -0.09765625 51.46484375 C-0.09579204 49.98653715 -0.09436815 48.50822993 -0.09336853 47.02992249 C-0.08954359 43.13201198 -0.07971352 39.23413851 -0.06866455 35.33624268 C-0.05844992 31.36153667 -0.0538708 27.38682471 -0.04882812 23.41210938 C-0.03809122 15.608056 -0.02101509 7.80403318 0 0 Z " fill="#050505" transform="translate(148,4)"/>
<path d="M0 0 C8.1365625 -0.0928125 8.1365625 -0.0928125 16.4375 -0.1875 C18.13060303 -0.21481201 19.82370605 -0.24212402 21.56811523 -0.27026367 C30.57792144 -0.35568791 38.89352334 -0.37401878 46.375 5.375 C51.53256641 10.53256641 53.12725335 15.08977864 53.25 22.25 C53.16487428 29.35326849 51.48994048 35.26301023 46.66015625 40.68359375 C43.24787503 43.38933204 39.0923401 44.64744692 35 46 C34.01 46.33 33.02 46.66 32 47 C30.66474283 47.07973476 29.32587917 47.10771338 27.98828125 47.09765625 C26.85229492 47.09282227 26.85229492 47.09282227 25.69335938 47.08789062 C24.51483398 47.07532227 24.51483398 47.07532227 23.3125 47.0625 C22.11657227 47.05573242 22.11657227 47.05573242 20.89648438 47.04882812 C18.93095743 47.0370585 16.96546915 47.01912348 15 47 C15.00523682 47.57032959 15.01047363 48.14065918 15.01586914 48.72827148 C15.03658221 51.29800323 15.0496419 53.86771747 15.0625 56.4375 C15.07087891 57.33533203 15.07925781 58.23316406 15.08789062 59.15820312 C15.09111328 60.01220703 15.09433594 60.86621094 15.09765625 61.74609375 C15.10289307 62.53685303 15.10812988 63.3276123 15.11352539 64.14233398 C15 66 15 66 14 67 C9.38 67 4.76 67 0 67 C0 44.89 0 22.78 0 0 Z " fill="#020202" transform="translate(285,4)"/>
<path d="M0 0 C4.62 0 9.24 0 14 0 C15.74506615 1.74506615 15.23282784 4.19039143 15.31640625 6.56640625 C15.35451416 7.57904541 15.39262207 8.59168457 15.43188477 9.63500977 C15.47498779 10.93108154 15.51809082 12.22715332 15.5625 13.5625 C15.706875 17.666875 15.85125 21.77125 16 26 C24.25 26 32.5 26 41 26 C41.28928623 17.81768379 41.28928623 17.81768379 41.56811523 9.63500977 C41.60622314 8.62237061 41.64433105 7.60973145 41.68359375 6.56640625 C41.72025146 5.52427979 41.75690918 4.48215332 41.79467773 3.40844727 C42 1 42 1 43 0 C47.62 0 52.24 0 57 0 C57 22.11 57 44.22 57 67 C52.38 67 47.76 67 43 67 C41.25493385 65.25493385 41.76717216 62.80960857 41.68359375 60.43359375 C41.62643188 58.91463501 41.62643188 58.91463501 41.56811523 57.36499023 C41.52501221 56.06891846 41.48190918 54.77284668 41.4375 53.4375 C41.2209375 47.2809375 41.2209375 47.2809375 41 41 C32.75 41 24.5 41 16 41 C15.67 49.58 15.34 58.16 15 67 C10.05 67 5.1 67 0 67 C0 44.89 0 22.78 0 0 Z " fill="#050505" transform="translate(473,4)"/>
<path d="M0 0 C0.88602402 0.00222061 1.77204803 0.00444122 2.68492126 0.00672913 C3.68588333 0.00680466 4.6868454 0.00688019 5.71813965 0.00695801 C6.80666733 0.01211929 7.89519501 0.01728058 9.01670837 0.02259827 C10.67928932 0.02472069 10.67928932 0.02472069 12.37545776 0.02688599 C15.93168281 0.03250418 19.48784596 0.04505977 23.04405212 0.05775452 C25.44834809 0.06276717 27.85264504 0.06733048 30.25694275 0.07142639 C36.16516716 0.08247952 42.07335522 0.09923535 47.98155212 0.12025452 C48.00841765 2.09934849 48.02788588 4.07854423 48.04405212 6.05775452 C48.05565369 7.15990295 48.06725525 8.26205139 48.07920837 9.39759827 C47.98155212 12.12025452 47.98155212 12.12025452 46.98155212 13.12025452 C44.38795891 13.20876981 41.82115521 13.23551397 39.22764587 13.21791077 C38.45219925 13.21649582 37.67675262 13.21508087 36.87780762 13.21362305 C34.39151718 13.20800797 31.90531552 13.19545298 29.41905212 13.18275452 C27.7374128 13.17774146 26.05577206 13.17317821 24.37413025 13.16908264 C20.24323646 13.15803365 16.11240936 13.14075896 11.98155212 13.12025452 C12.31155212 17.41025452 12.64155212 21.70025452 12.98155212 26.12025452 C13.88510437 26.14531067 14.78865662 26.17036682 15.71958923 26.19618225 C19.06119493 26.29112769 22.40261464 26.39037073 25.7440033 26.49256897 C27.19219452 26.53597082 28.64043867 26.57764196 30.08872986 26.61756897 C32.16644772 26.67514514 34.24389786 26.7388748 36.32139587 26.80384827 C37.572995 26.84050598 38.82459412 26.8771637 40.11412048 26.91493225 C42.98155212 27.12025452 42.98155212 27.12025452 43.98155212 28.12025452 C44.08006383 29.95141335 44.11127841 31.78645385 44.10655212 33.62025452 C44.11041931 35.12072327 44.11041931 35.12072327 44.11436462 36.65150452 C43.98155212 39.12025452 43.98155212 39.12025452 42.98155212 40.12025452 C40.69003795 40.20816427 38.39582688 40.2271949 36.10264587 40.21791077 C35.07265221 40.21578835 35.07265221 40.21578835 34.02185059 40.21362305 C31.82087411 40.20800931 29.61999804 40.19545459 27.41905212 40.18275452 C25.9301213 40.17774128 24.44118888 40.17317807 22.95225525 40.16908264 C19.29528407 40.15888473 15.63853095 40.13931231 11.98155212 40.12025452 C11.98155212 44.74025452 11.98155212 49.36025452 11.98155212 54.12025452 C23.86155212 54.12025452 35.74155212 54.12025452 47.98155212 54.12025452 C47.98155212 58.41025452 47.98155212 62.70025452 47.98155212 67.12025452 C31.15155212 67.12025452 14.32155212 67.12025452 -3.01844788 67.12025452 C-3.05855669 50.68901229 -3.05855669 50.68901229 -3.067276 43.70814514 C-3.07326378 38.9367309 -3.08036233 34.16533576 -3.09388733 29.39393616 C-3.10471849 25.54900337 -3.11072519 21.70409107 -3.11332512 17.85914421 C-3.11517896 16.38906469 -3.11879878 14.91898633 -3.12417793 13.44891548 C-3.13139143 11.39670984 -3.13243869 9.34458984 -3.13197327 7.29237366 C-3.13419388 6.12211136 -3.13641449 4.95184906 -3.13870239 3.74612427 C-2.9752624 0.17725934 -2.9752624 0.17725934 0 0 Z " fill="#050505" transform="translate(223.01844787597656,3.8797454833984375)"/>
<path d="M0 0 C4.29 0 8.58 0 13 0 C17.06198115 7.95199522 20.77350651 15.93940916 24.1875 24.1875 C27.10406037 31.1826599 30.04816392 38.15769884 33.15625 45.0703125 C33.66389893 46.20186768 34.17154785 47.33342285 34.69458008 48.49926758 C35.67117283 50.66661675 36.65510079 52.8306794 37.6472168 54.9909668 C38.30717651 56.4591687 38.30717651 56.4591687 38.98046875 57.95703125 C39.37129639 58.81272705 39.76212402 59.66842285 40.16479492 60.55004883 C41 63 41 63 41 68 C36.38 68 31.76 68 27 68 C24.55192605 63.26705702 22.70406761 59.11220282 21 54 C11.43 53.67 1.86 53.34 -8 53 C-8.33 54.65 -8.66 56.3 -9 58 C-10.52164178 61.41745777 -12.27263332 64.67814101 -14 68 C-18.62 68 -23.24 68 -28 68 C-27.26122887 64.30614435 -26.61093975 61.77757621 -25.14453125 58.4453125 C-24.77231445 57.5905835 -24.40009766 56.73585449 -24.01660156 55.85522461 C-23.61924805 54.95425049 -23.22189453 54.05327637 -22.8125 53.125 C-20.0426525 46.75995195 -17.30097227 40.39373842 -14.75 33.9375 C-7.59353113 15.87875212 -7.59353113 15.87875212 -3.11328125 7.25390625 C-1.94800903 4.8947411 -0.97722475 2.44306188 0 0 Z " fill="#030303" transform="translate(366,3)"/>
<path d="M0 0 C2.31156017 1.46600134 4.27134976 3.04478726 6.20703125 4.98046875 C5.87708845 8.3781776 4.38777915 10.24857745 2.14453125 12.73046875 C1.59667969 13.3440625 1.04882812 13.95765625 0.484375 14.58984375 C0.06285156 15.04875 -0.35867187 15.50765625 -0.79296875 15.98046875 C-3.99782419 15.35670494 -6.14030083 14.19932191 -8.85546875 12.41796875 C-14.14783754 9.43230675 -18.82726713 8.88939648 -24.79296875 9.98046875 C-30.46794775 12.22009257 -33.87133479 15.60466227 -36.79296875 20.98046875 C-38.93788049 27.41520398 -38.68927096 34.70849727 -36.10546875 40.98046875 C-33.79743257 45.47463779 -30.95429313 47.74542625 -26.60546875 50.23046875 C-19.47749149 52.13126269 -14.35035321 51.62432932 -7.91796875 47.91796875 C-7.03367188 47.34949219 -6.149375 46.78101563 -5.23828125 46.1953125 C-2.79296875 44.98046875 -2.79296875 44.98046875 -0.6796875 45.12109375 C1.45286567 46.09244302 2.84683404 47.15347645 4.51953125 48.79296875 C5.05191406 49.29441406 5.58429687 49.79585937 6.1328125 50.3125 C7.20703125 51.98046875 7.20703125 51.98046875 7.1640625 53.953125 C5.84200465 56.75372917 4.1253027 57.86129165 1.58203125 59.60546875 C0.32519531 60.49105469 0.32519531 60.49105469 -0.95703125 61.39453125 C-6.87666481 64.70495993 -12.60005861 65.34339576 -19.23046875 65.29296875 C-20.35642456 65.28668457 -20.35642456 65.28668457 -21.50512695 65.28027344 C-30.46032407 65.09685726 -37.18744049 62.35303254 -43.80078125 56.07421875 C-51.02016821 48.50851434 -53.97922992 41.91394452 -54.16796875 31.41796875 C-53.76787688 19.35459257 -51.56873054 12.98987749 -43.09375 4.22265625 C-31.73396427 -6.31625918 -13.4603727 -7.65393742 0 0 Z " fill="#030303" transform="translate(55.79296875,7.01953125)"/>
<path d="M0 0 C4.29 0 8.58 0 13 0 C13.495 6.435 13.495 6.435 14 13 C15.5675 11.989375 17.135 10.97875 18.75 9.9375 C23.35606061 6.96780303 23.35606061 6.96780303 26.1875 7.109375 C28.40896325 8.20095608 29.08164908 9.14734175 30.25 11.3125 C30.58515625 11.90675781 30.9203125 12.50101563 31.265625 13.11328125 C32 15 32 15 32 19 C29.8828125 20.703125 29.8828125 20.703125 27.125 22.25 C26.22007812 22.77078125 25.31515625 23.2915625 24.3828125 23.828125 C22 25 22 25 20 25 C20 25.66 20 26.32 20 27 C20.680625 27.2475 21.36125 27.495 22.0625 27.75 C25.56865083 29.24197908 28.71620368 31.06835511 32 33 C31.52389341 37.99911924 29.96837781 40.97832683 27 45 C23.70319035 44.34215037 21.15882078 43.10579427 18.25 41.4375 C17.45078125 40.98246094 16.6515625 40.52742188 15.828125 40.05859375 C15.22484375 39.70925781 14.6215625 39.35992187 14 39 C13.90912109 40.28197266 13.90912109 40.28197266 13.81640625 41.58984375 C13.73261719 42.69457031 13.64882813 43.79929688 13.5625 44.9375 C13.48128906 46.03964844 13.40007813 47.14179687 13.31640625 48.27734375 C13 51 13 51 12 52 C7.99779347 52.14355117 4.00558317 52.04216403 0 52 C0 47.38 0 42.76 0 38 C-1.7325 39.175625 -3.465 40.35125 -5.25 41.5625 C-10.33680746 45.01426221 -10.33680746 45.01426221 -13.1796875 44.953125 C-15.52754041 43.72377713 -16.47101491 42.4263993 -17.875 40.1875 C-18.32617188 39.50042969 -18.77734375 38.81335937 -19.2421875 38.10546875 C-20 36 -20 36 -19.41796875 33.90234375 C-17.67636822 31.56581632 -16.03723482 30.66860802 -13.4375 29.375 C-10.06626821 27.85508869 -10.06626821 27.85508869 -8 25 C-8.680625 24.7525 -9.36125 24.505 -10.0625 24.25 C-13.56865083 22.75802092 -16.71620368 20.93164489 -20 19 C-19.54300722 13.97307937 -17.00758252 10.85103739 -14 7 C-9.01475706 8.76895717 -4.5878012 11.3979635 0 14 C0 9.38 0 4.76 0 0 Z " fill="#6FC397" transform="translate(566,11)"/>
<path d="M0 0 C7.81453214 -0.02463956 15.62904188 -0.04283105 23.44360352 -0.05493164 C26.10441481 -0.05997383 28.76522332 -0.06680736 31.42602539 -0.07543945 C35.24105516 -0.08751009 39.05604844 -0.09322929 42.87109375 -0.09765625 C44.66793861 -0.10539818 44.66793861 -0.10539818 46.50108337 -0.11329651 C48.15268211 -0.11340981 48.15268211 -0.11340981 49.83764648 -0.11352539 C50.81249496 -0.115746 51.78734344 -0.11796661 52.79173279 -0.12025452 C55 0 55 0 56 1 C56.09851171 2.83115883 56.12972629 4.66619933 56.125 6.5 C56.12886719 8.00046875 56.12886719 8.00046875 56.1328125 9.53125 C56 12 56 12 55 13 C48.73 13.33 42.46 13.66 36 14 C35.67 31.49 35.34 48.98 35 67 C30.38 67 25.76 67 21 67 C19.34702091 65.34702091 19.83307817 63.38963445 19.79467773 61.11303711 C19.77473251 60.07203354 19.75478729 59.03102997 19.73423767 57.95848083 C19.71752518 56.8262056 19.70081268 55.69393036 19.68359375 54.52734375 C19.66281265 53.37456436 19.64203156 52.22178497 19.62062073 51.03407288 C19.55500036 47.33527843 19.49618245 43.63641041 19.4375 39.9375 C19.39432665 37.43684121 19.35071276 34.93618999 19.30664062 32.43554688 C19.19930628 26.29044085 19.09807441 20.1452605 19 14 C12.73 13.67 6.46 13.34 0 13 C0 8.71 0 4.42 0 0 Z " fill="#000000" transform="translate(406,4)"/>
<path d="M0 0 C5.63651001 3.10514324 10.21688738 6.66087185 12.234375 12.9375 C13.3596422 21.85138136 12.27194469 28.09988901 7.546875 35.625 C3.1196435 40.0522315 -1.48531169 42.15730141 -7.765625 42.4375 C-13.77652632 42.14248644 -18.35943096 40.49875988 -22.5234375 36.06640625 C-26.95598178 30.40259967 -29.27975301 25.60608435 -29.07421875 18.33984375 C-28.17488001 11.33866245 -24.98877224 6.4700561 -19.546875 2.12890625 C-13.43080195 -1.96188822 -6.96450479 -2.67562896 0 0 Z " fill="#F9F9F9" transform="translate(110.765625,17.0625)"/>
<path d="M0 0 C2.73584027 -0.04228646 5.4710217 -0.07323133 8.20703125 -0.09765625 C9.36434753 -0.11729431 9.36434753 -0.11729431 10.54504395 -0.1373291 C17.3836519 -0.18312744 21.7466286 0.89778081 26.765625 5.68359375 C31.72675137 11.07360254 32.26054799 15.33938376 32.14453125 22.54296875 C31.80023529 28.39600011 29.52343727 31.97832334 25.92578125 36.38671875 C20.59968047 40.84854354 15.2909438 41.44641823 8.625 41.25 C7.90183594 41.24484375 7.17867187 41.2396875 6.43359375 41.234375 C1.15514881 41.15514881 1.15514881 41.15514881 0 40 C-0.08868299 37.04294679 -0.11520296 34.10934944 -0.09765625 31.15234375 C-0.0962413 30.2659169 -0.09482635 29.37949005 -0.09336853 28.46620178 C-0.08775215 25.62326746 -0.07519691 22.78041069 -0.0625 19.9375 C-0.05748711 18.01497509 -0.05292384 16.09244896 -0.04882812 14.16992188 C-0.03777741 9.44658451 -0.02050183 4.72330542 0 0 Z " fill="#FAFAFA" transform="translate(163,17)"/>
<path d="M0 0 C1.83111328 -0.03867187 1.83111328 -0.03867187 3.69921875 -0.078125 C8.53666465 0.36116738 11.87500919 1.81250919 15.3125 5.25 C15.8814878 8.6339801 15.84506913 11.86286032 15.3125 15.25 C12.78573961 18.59625024 11.27316458 19.92977847 7.3125 21.25 C4.73984182 21.32029121 2.19608569 21.34370832 -0.375 21.3125 C-1.07689453 21.30798828 -1.77878906 21.30347656 -2.50195312 21.29882812 C-4.23050538 21.28706927 -5.95901365 21.26913454 -7.6875 21.25 C-7.71638146 17.93751813 -7.73425799 14.62506833 -7.75 11.3125 C-7.75837891 10.36697266 -7.76675781 9.42144531 -7.77539062 8.44726562 C-7.77861328 7.54814453 -7.78183594 6.64902344 -7.78515625 5.72265625 C-7.79039307 4.89000244 -7.79562988 4.05734863 -7.80102539 3.19946289 C-7.5436952 -1.21942225 -3.59401902 0.04506607 0 0 Z " fill="#F8F8F8" transform="translate(307.6875,16.75)"/>
<path d="M0 0 C1.828125 0.14453125 1.828125 0.14453125 4 1 C5.484375 3.51171875 5.484375 3.51171875 6.75 6.6875 C7.17796875 7.72261719 7.6059375 8.75773437 8.046875 9.82421875 C9 13 9 13 9 19 C4.05 19 -0.9 19 -6 19 C-7.06080253 14.75678987 -7.0238367 14.28835841 -5.25 10.625 C-4.87875 9.84511719 -4.5075 9.06523438 -4.125 8.26171875 C-3.75375 7.51535156 -3.3825 6.76898437 -3 6 C-2.4225 4.824375 -1.845 3.64875 -1.25 2.4375 C-0.8375 1.633125 -0.425 0.82875 0 0 Z " fill="#EFEFEF" transform="translate(371,24)"/>
</svg>
